PathFileType	4	(X/Y/Z)	52_1_3_p0_0-331.trc
DataRate	CameraRate	NumFrames	NumMarkers	Units	OrigDataRate	OrigDataStartFrame	OrigNumFrames
60.0	60.0	6	27	m	60.0	83	332
Frame#	Time	RHip			RKnee			RAnkle			RBigToe			RSmallToe			RHeel			LHip			LKnee			LAnkle			LBigToe			LSmallToe			LHeel			Neck			Head			Nose			RShoulder			RElbow			RWrist			RThumb			RIndex			RPinky			LShoulder			LElbow			LWrist			LThumb			LIndex			LPinky			
		X1	Y1	Z1	X2	Y2	Z2	X3	Y3	Z3	X4	Y4	Z4	X5	Y5	Z5	X6	Y6	Z6	X7	Y7	Z7	X8	Y8	Z8	X9	Y9	Z9	X10	Y10	Z10	X11	Y11	Z11	X12	Y12	Z12	X13	Y13	Z13	X14	Y14	Z14	X15	Y15	Z15	X16	Y16	Z16	X17	Y17	Z17	X18	Y18	Z18	X19	Y19	Z19	X20	Y20	Z20	X21	Y21	Z21	X22	Y22	Z22	X23	Y23	Z23	X24	Y24	Z24	X25	Y25	Z25	X26	Y26	Z26	X27	Y27	Z27	
83	1.3833333333333333	0.2070528031869893	0.5553059707455517	0.49170787356456147	0.11910685108924478	0.6616512671784801	0.89027007886562	0.03216638089261542	0.8123045540361947	1.2732331704492341	0.00705736881667268	0.6168838703389979	1.3153397267856308	0.06901200277735382	0.6368508131631222	1.3323510099247358	0.002746565737536249	0.8933254273805409	1.311273576887835	0.02453244080443973	0.5531186212476712	0.44637111921054057	-0.07361974029941946	0.6613204968281294	0.8236626385181214	-0.15481529058370785	0.7759233376954432	1.2109998188815732	-0.14387893040590488	0.5817030709306394	1.2598967142005415	-0.20083272773811847	0.637142587052613	1.2582226249303972	-0.14924916511657937	0.8771534731700378	1.2898273296286273	0.23128488244072312	0.46812297558648625	0.005403705828890392	0.26755969547783337	0.3190778507466984	-0.20346683859835957	0.21900894773288115	0.28825048710467094	-0.08094720299599721	0.3458246681310713	0.43661691145872245	0.11102281066839922	0.35801448769984856	0.5862368961326827	0.3589641445097923	0.31759011889593586	0.6340080903942975	0.595085973939347	0.2576836640717684	0.5766892901333427	0.6884846644479917	0.2814319123063806	0.6284124734777957	0.7259819922449416	0.2949452416395575	0.6559697599714043	0.7199993437242158	0.07619739498525176	0.4891523763909359	0.03793075087271615	-0.057768395470367565	0.5079884922696276	0.18858666306743213	-0.033652860375860315	0.2682440330353552	0.15424760307449845	0.016077544829493102	0.13455460200383057	0.12300301468263157	-0.003933759881882373	0.09551236606904925	0.11331043765593406	-0.035748372028560176	0.12957359170868996	0.14532130504068252
84	1.4	0.20847737171044273	0.5549323833033355	0.4877877316768314	0.11902734505468436	0.6645940649514177	0.8951431301439806	0.025899361336305483	0.8309033726928723	1.2786745342324695	0.004535849514017825	0.6049269124592017	1.3150789842230224	0.06888982557177804	0.6362929008041396	1.332326237849441	0.0020540038490312732	0.8931820383193828	1.3158223041567245	0.025687933855252164	0.5528873158253538	0.4431253988072759	-0.07523930186364299	0.6617414704444335	0.8273937459596642	-0.1548235287982741	0.7757513989733463	1.2108463162642777	-0.13793915825762657	0.5667921229738783	1.2553875879445624	-0.20261378428597587	0.6376964420702064	1.2616944256855573	-0.14241032715274818	0.8548048159776206	1.279584922267227	0.23038990304625864	0.46892052872362905	0.008612192943220532	0.25930438040258563	0.3297024656717515	-0.20594790190343704	0.2179120709419792	0.28847113793179213	-0.07812604553539423	0.34616460741203164	0.43498758255244513	0.10761643770893936	0.35953448564099544	0.5840796705353244	0.35126279593471393	0.31762306236460874	0.6339912389962222	0.5951252658350171	0.2541117373430613	0.5748293996969225	0.6875856094032647	0.2822429098059954	0.6109808331409058	0.7231365136089706	0.2964805337916238	0.6558850497020878	0.7160834042956007	0.08298954711431472	0.4897873320857322	0.04253110481308361	-0.07302879296931286	0.4778306713981506	0.20111798923597055	-0.04628721921290564	0.24213116195958068	0.11428690403515106	0.0307652472050921	0.1996844700216079	0.08454120548965362	0.020674442429561294	0.13946380384275014	0.07673941181845402	-0.039740514649014326	0.16309525813251585	0.07664448803234138
85	1.4166666666666667	0.2084955777881258	0.555311924913836	0.48772885462469084	0.11999311796865479	0.65025353835522	0.8878828355314357	0.025977066853085744	0.8310991307045323	1.2787674717604467	0.004502941144552016	0.6050495111876245	1.315154343649633	0.06894094800963259	0.6364138072698746	1.3322977483793468	0.002060016939075621	0.8931700668574083	1.3159112869147593	0.02576958710587111	0.5532806947579404	0.44282147389209264	-0.07519803102703819	0.661832832632825	0.8273195298150006	-0.15483474377720272	0.7757680232064693	1.2108325338143198	-0.13794666129739191	0.566906558072744	1.2554349722259959	-0.20064216305744595	0.6367194747943218	1.2579995387465535	-0.1495929799206809	0.8737162674911393	1.285293151242895	0.22969181890837836	0.4688524923134299	0.008413072353866515	0.2549854207086623	0.3194463635893421	-0.19819657023203469	0.2138781258981121	0.2996969100392312	-0.08009030979358372	0.3461048562272483	0.4351168656212483	0.10755953252206293	0.358463915464156	0.5840037007240605	0.35489505752964234	0.3176879921881724	0.6338456490282093	0.5949648437654832	0.2584428851006688	0.5607954887839187	0.6860917388784281	0.2822595819390585	0.6107210278360542	0.7230590585930333	0.2950598533227248	0.6561298221093221	0.7197705378260013	0.08107273621164937	0.47743473589135443	0.03902314232954269	-0.09254369977918826	0.44479816149853957	0.1958763887981448	-0.05657111384454463	0.27317543044019804	0.08656404357694975	0.03307104004077723	0.2090179815158201	0.0554163620794631	0.032502385479846956	0.16983225370715496	0.04054810259712553	-0.03053613453818897	0.1627133814428709	0.05797730161848089
86	1.4333333333333333	0.20969328442456756	0.5697139546689751	0.4974792348293081	0.12316548953682491	0.6648335144456113	0.8920126862011297	0.025941765547371466	0.8310212382754687	1.2787262783862268	0.004363138417862321	0.6049450823163273	1.3153715860514612	0.0689014054213518	0.6365560659572261	1.332424193581963	0.0020057621100613657	0.893103577293048	1.3157521463009716	0.025710916261995558	0.5535362937200465	0.4429215154959193	-0.07352933836743947	0.6615490664475063	0.8235989077085984	-0.1548374647258816	0.7755682719821763	1.210712920776728	-0.13850210250036393	0.566109415367833	1.2600820078973618	-0.20057678464718354	0.6366966653509969	1.258083643773774	-0.14869277435217568	0.8342945212549526	1.2713604650086303	0.2208527498501236	0.48142371790262206	0.00978116658045076	0.25842071930774335	0.3071196641750459	-0.19560009565310904	0.213005829567938	0.2994786533625991	-0.07715153915459291	0.345704189049393	0.43703523876419664	0.11097104395014945	0.3569912961368464	0.5865102999537686	0.36261919289877875	0.31762676980895727	0.633814902783028	0.5950554701649527	0.25883223100525427	0.5487857873697658	0.6844665855387674	0.28227689826171387	0.6104330538706494	0.7230235187849492	0.29695456687878585	0.6557591799970492	0.712457378962519	0.08278729920785677	0.4903927012563068	0.04279261235902529	-0.08975889811834109	0.4105705372523995	0.17551328760440815	-0.048183358146381514	0.28169308627610623	0.0552286319447285	0.03914000327787659	0.22020779661833312	0.007003519583638476	0.04428755786059631	0.18625233639236838	-0.0020915610640363518	-0.023679803378363368	0.17222881815942367	0.007195180085207254
87	1.45	0.20787795343472432	0.5552396285927595	0.4916087965879566	0.12306937545348155	0.6675532675720651	0.8967074590037815	0.025967749792914118	0.8309703280116859	1.2785770830552499	0.006729387434964741	0.6192542928672432	1.3206946521430813	0.06926169502462949	0.6370450484506155	1.3322338752088982	0.0025779692849758314	0.8935578267729274	1.3115599370584863	0.024973437684420383	0.5557384933971438	0.44784865786967193	-0.07522303022876849	0.6619128508136989	0.8276815271962064	-0.154806280149476	0.7754393794491198	1.2107257558196036	-0.13603943334542176	0.5656944342107739	1.2520412886206678	-0.20016918184934177	0.6357157787069884	1.2573821806484604	-0.14897874817107137	0.8343466732614161	1.2719123395872076	0.23055600444547156	0.4690049948282033	0.008798542919802064	0.2511897499181144	0.29430018848921624	-0.19506116789262673	0.21023680364110708	0.2880990526793857	-0.0764219511461472	0.346050581893403	0.43527710248373586	0.10758661333404065	0.3569838957495921	0.5860324299335034	0.3626944261971193	0.32170554862341727	0.6185637834198452	0.5938550819472038	0.2624736258305142	0.5617665734935261	0.6873849467005145	0.2824838617111417	0.6101295806484449	0.7230880760215161	0.2955274597720239	0.6557555409450881	0.7163973182264181	0.080043495273318	0.5010037140661009	0.030627949950735672	-0.0987171583177857	0.4298075367202042	0.16217507183312121	-0.04370059245128863	0.2967799197553157	0.017839011714342864	0.043115212656842705	0.2174080124305464	-0.01190454508088451	0.044133175944073275	0.1950665211049011	-0.022362887856911144	-0.009348718774694734	0.2062873830888117	-0.017388269077405257
88	1.4666666666666666	0.2110982717257818	0.5690470163116397	0.4935217899581257	0.12329231665094623	0.6649424148833839	0.8918532911772082	0.026012679491265445	0.8309532046993875	1.278562312612813	0.006861269930119729	0.6194000568173742	1.3204064810078124	0.06937924448714032	0.6371137368404156	1.3321102182997824	0.00013884648341877772	0.8775479382861554	1.3052930701031535	0.01950896452359575	0.5702412146714847	0.44806100532624	-0.07516960877702532	0.6619308176565968	0.8276316622232972	-0.15483665398251456	0.7753619866886335	1.2106955073028856	-0.13512605693831492	0.580892449343862	1.2578097455975445	-0.20023143883384978	0.6363672371016035	1.2578059885044894	-0.14893784495378795	0.8342088614979952	1.271688096148468	0.22999261932744874	0.46785221688881884	0.011755949901660998	0.24346064453722474	0.29105207129543026	-0.19626404732320213	0.20399764845776644	0.2997968873295311	-0.06906756563669984	0.3456972719143029	0.4367444174677631	0.11114855397262521	0.35696403169064855	0.5859727989037425	0.3627518349947286	0.3217502295465453	0.6184226352752552	0.5937081297502946	0.2626661718196523	0.561578721146562	0.6870613429459216	0.2867450984453581	0.6115201026438017	0.7203930310640108	0.29697971820835156	0.6547358055645983	0.7123114235884593	0.08128046653118669	0.49093118649467543	0.03107439917298844	-0.08784979874641076	0.4018542131194767	0.14496604630869908	-0.03892368808104562	0.2926070889428095	-0.003916931134099011	0.03249373946916438	0.24918427976313548	-0.02604009197308462	0.038567989626210546	0.23237183625134844	-0.05400397924526115	0.014750871685578858	0.23119961906450778	-0.029277608865680083
